G04 #@! TF.GenerationSoftware,KiCad,Pcbnew,5.1.2-5.1.2*
G04 #@! TF.CreationDate,2019-06-30T11:24:38+01:00*
G04 #@! TF.ProjectId,music4xxx,6d757369-6334-4787-9878-2e6b69636164,rev?*
G04 #@! TF.SameCoordinates,Original*
G04 #@! TF.FileFunction,Legend,Bot*
G04 #@! TF.FilePolarity,Positive*
%FSLAX46Y46*%
G04 Gerber Fmt 4.6, Leading zero omitted, Abs format (unit mm)*
G04 Created by KiCad (PCBNEW 5.1.2-5.1.2) date 2019-06-30 11:24:38*
%MOMM*%
%LPD*%
G04 APERTURE LIST*
%ADD10C,0.200000*%
%ADD11C,0.300000*%
G04 APERTURE END LIST*
D10*
X34059047Y-41723571D02*
X34059047Y-42795000D01*
X34106666Y-43009285D01*
X34201904Y-43152142D01*
X34344761Y-43223571D01*
X34440000Y-43223571D01*
X32344761Y-43223571D02*
X32820952Y-43223571D01*
X32820952Y-41723571D01*
X31582857Y-43223571D02*
X31582857Y-42437857D01*
X31630476Y-42295000D01*
X31725714Y-42223571D01*
X31916190Y-42223571D01*
X32011428Y-42295000D01*
X31582857Y-43152142D02*
X31678095Y-43223571D01*
X31916190Y-43223571D01*
X32011428Y-43152142D01*
X32059047Y-43009285D01*
X32059047Y-42866428D01*
X32011428Y-42723571D01*
X31916190Y-42652142D01*
X31678095Y-42652142D01*
X31582857Y-42580714D01*
X31106666Y-42223571D02*
X31106666Y-43223571D01*
X31106666Y-42366428D02*
X31059047Y-42295000D01*
X30963809Y-42223571D01*
X30820952Y-42223571D01*
X30725714Y-42295000D01*
X30678095Y-42437857D01*
X30678095Y-43223571D01*
X29820952Y-43152142D02*
X29916190Y-43223571D01*
X30106666Y-43223571D01*
X30201904Y-43152142D01*
X30249523Y-43009285D01*
X30249523Y-42437857D01*
X30201904Y-42295000D01*
X30106666Y-42223571D01*
X29916190Y-42223571D01*
X29820952Y-42295000D01*
X29773333Y-42437857D01*
X29773333Y-42580714D01*
X30249523Y-42723571D01*
X28297142Y-41723571D02*
X28297142Y-42795000D01*
X28344761Y-43009285D01*
X28440000Y-43152142D01*
X28582857Y-43223571D01*
X28678095Y-43223571D01*
X27392380Y-42223571D02*
X27392380Y-43223571D01*
X27820952Y-42223571D02*
X27820952Y-43009285D01*
X27773333Y-43152142D01*
X27678095Y-43223571D01*
X27535238Y-43223571D01*
X27440000Y-43152142D01*
X27392380Y-43080714D01*
X26773333Y-43223571D02*
X26868571Y-43152142D01*
X26916190Y-43009285D01*
X26916190Y-41723571D01*
X26487619Y-42223571D02*
X26249523Y-43223571D01*
X26011428Y-42223571D02*
X26249523Y-43223571D01*
X26344761Y-43580714D01*
X26392380Y-43652142D01*
X26487619Y-43723571D01*
X24916190Y-41866428D02*
X24868571Y-41795000D01*
X24773333Y-41723571D01*
X24535238Y-41723571D01*
X24440000Y-41795000D01*
X24392380Y-41866428D01*
X24344761Y-42009285D01*
X24344761Y-42152142D01*
X24392380Y-42366428D01*
X24963809Y-43223571D01*
X24344761Y-43223571D01*
X23725714Y-41723571D02*
X23630476Y-41723571D01*
X23535238Y-41795000D01*
X23487619Y-41866428D01*
X23440000Y-42009285D01*
X23392380Y-42295000D01*
X23392380Y-42652142D01*
X23440000Y-42937857D01*
X23487619Y-43080714D01*
X23535238Y-43152142D01*
X23630476Y-43223571D01*
X23725714Y-43223571D01*
X23820952Y-43152142D01*
X23868571Y-43080714D01*
X23916190Y-42937857D01*
X23963809Y-42652142D01*
X23963809Y-42295000D01*
X23916190Y-42009285D01*
X23868571Y-41866428D01*
X23820952Y-41795000D01*
X23725714Y-41723571D01*
X22440000Y-43223571D02*
X23011428Y-43223571D01*
X22725714Y-43223571D02*
X22725714Y-41723571D01*
X22820952Y-41937857D01*
X22916190Y-42080714D01*
X23011428Y-42152142D01*
X21963809Y-43223571D02*
X21773333Y-43223571D01*
X21678095Y-43152142D01*
X21630476Y-43080714D01*
X21535238Y-42866428D01*
X21487619Y-42580714D01*
X21487619Y-42009285D01*
X21535238Y-41866428D01*
X21582857Y-41795000D01*
X21678095Y-41723571D01*
X21868571Y-41723571D01*
X21963809Y-41795000D01*
X22011428Y-41866428D01*
X22059047Y-42009285D01*
X22059047Y-42366428D01*
X22011428Y-42509285D01*
X21963809Y-42580714D01*
X21868571Y-42652142D01*
X21678095Y-42652142D01*
X21582857Y-42580714D01*
X21535238Y-42509285D01*
X21487619Y-42366428D01*
X51115952Y-29085000D02*
X51532619Y-29085000D01*
X51532619Y-30001666D02*
X51532619Y-28251666D01*
X50937380Y-28251666D01*
X50282619Y-30001666D02*
X50401666Y-29918333D01*
X50461190Y-29835000D01*
X50520714Y-29668333D01*
X50520714Y-29168333D01*
X50461190Y-29001666D01*
X50401666Y-28918333D01*
X50282619Y-28835000D01*
X50104047Y-28835000D01*
X49985000Y-28918333D01*
X49925476Y-29001666D01*
X49865952Y-29168333D01*
X49865952Y-29668333D01*
X49925476Y-29835000D01*
X49985000Y-29918333D01*
X50104047Y-30001666D01*
X50282619Y-30001666D01*
X49330238Y-30001666D02*
X49330238Y-28835000D01*
X49330238Y-29168333D02*
X49270714Y-29001666D01*
X49211190Y-28918333D01*
X49092142Y-28835000D01*
X48973095Y-28835000D01*
X47782619Y-28835000D02*
X47306428Y-28835000D01*
X47604047Y-28251666D02*
X47604047Y-29751666D01*
X47544523Y-29918333D01*
X47425476Y-30001666D01*
X47306428Y-30001666D01*
X46889761Y-30001666D02*
X46889761Y-28251666D01*
X46354047Y-30001666D02*
X46354047Y-29085000D01*
X46413571Y-28918333D01*
X46532619Y-28835000D01*
X46711190Y-28835000D01*
X46830238Y-28918333D01*
X46889761Y-29001666D01*
X45282619Y-29918333D02*
X45401666Y-30001666D01*
X45639761Y-30001666D01*
X45758809Y-29918333D01*
X45818333Y-29751666D01*
X45818333Y-29085000D01*
X45758809Y-28918333D01*
X45639761Y-28835000D01*
X45401666Y-28835000D01*
X45282619Y-28918333D01*
X45223095Y-29085000D01*
X45223095Y-29251666D01*
X45818333Y-29418333D01*
X43318333Y-29085000D02*
X43139761Y-29168333D01*
X43080238Y-29251666D01*
X43020714Y-29418333D01*
X43020714Y-29668333D01*
X43080238Y-29835000D01*
X43139761Y-29918333D01*
X43258809Y-30001666D01*
X43735000Y-30001666D01*
X43735000Y-28251666D01*
X43318333Y-28251666D01*
X43199285Y-28335000D01*
X43139761Y-28418333D01*
X43080238Y-28585000D01*
X43080238Y-28751666D01*
X43139761Y-28918333D01*
X43199285Y-29001666D01*
X43318333Y-29085000D01*
X43735000Y-29085000D01*
X42068333Y-29085000D02*
X41889761Y-29168333D01*
X41830238Y-29251666D01*
X41770714Y-29418333D01*
X41770714Y-29668333D01*
X41830238Y-29835000D01*
X41889761Y-29918333D01*
X42008809Y-30001666D01*
X42485000Y-30001666D01*
X42485000Y-28251666D01*
X42068333Y-28251666D01*
X41949285Y-28335000D01*
X41889761Y-28418333D01*
X41830238Y-28585000D01*
X41830238Y-28751666D01*
X41889761Y-28918333D01*
X41949285Y-29001666D01*
X42068333Y-29085000D01*
X42485000Y-29085000D01*
X40520714Y-29835000D02*
X40580238Y-29918333D01*
X40758809Y-30001666D01*
X40877857Y-30001666D01*
X41056428Y-29918333D01*
X41175476Y-29751666D01*
X41235000Y-29585000D01*
X41294523Y-29251666D01*
X41294523Y-29001666D01*
X41235000Y-28668333D01*
X41175476Y-28501666D01*
X41056428Y-28335000D01*
X40877857Y-28251666D01*
X40758809Y-28251666D01*
X40580238Y-28335000D01*
X40520714Y-28418333D01*
X39032619Y-30001666D02*
X39032619Y-28251666D01*
X38615952Y-29501666D01*
X38199285Y-28251666D01*
X38199285Y-30001666D01*
X37604047Y-30001666D02*
X37604047Y-28835000D01*
X37604047Y-28251666D02*
X37663571Y-28335000D01*
X37604047Y-28418333D01*
X37544523Y-28335000D01*
X37604047Y-28251666D01*
X37604047Y-28418333D01*
X36473095Y-29918333D02*
X36592142Y-30001666D01*
X36830238Y-30001666D01*
X36949285Y-29918333D01*
X37008809Y-29835000D01*
X37068333Y-29668333D01*
X37068333Y-29168333D01*
X37008809Y-29001666D01*
X36949285Y-28918333D01*
X36830238Y-28835000D01*
X36592142Y-28835000D01*
X36473095Y-28918333D01*
X35937380Y-30001666D02*
X35937380Y-28835000D01*
X35937380Y-29168333D02*
X35877857Y-29001666D01*
X35818333Y-28918333D01*
X35699285Y-28835000D01*
X35580238Y-28835000D01*
X34985000Y-30001666D02*
X35104047Y-29918333D01*
X35163571Y-29835000D01*
X35223095Y-29668333D01*
X35223095Y-29168333D01*
X35163571Y-29001666D01*
X35104047Y-28918333D01*
X34985000Y-28835000D01*
X34806428Y-28835000D01*
X34687380Y-28918333D01*
X34627857Y-29001666D01*
X34568333Y-29168333D01*
X34568333Y-29668333D01*
X34627857Y-29835000D01*
X34687380Y-29918333D01*
X34806428Y-30001666D01*
X34985000Y-30001666D01*
X33496904Y-29918333D02*
X33615952Y-30001666D01*
X33854047Y-30001666D01*
X33973095Y-29918333D01*
X34032619Y-29835000D01*
X34092142Y-29668333D01*
X34092142Y-29168333D01*
X34032619Y-29001666D01*
X33973095Y-28918333D01*
X33854047Y-28835000D01*
X33615952Y-28835000D01*
X33496904Y-28918333D01*
X32782619Y-30001666D02*
X32901666Y-29918333D01*
X32961190Y-29835000D01*
X33020714Y-29668333D01*
X33020714Y-29168333D01*
X32961190Y-29001666D01*
X32901666Y-28918333D01*
X32782619Y-28835000D01*
X32604047Y-28835000D01*
X32485000Y-28918333D01*
X32425476Y-29001666D01*
X32365952Y-29168333D01*
X32365952Y-29668333D01*
X32425476Y-29835000D01*
X32485000Y-29918333D01*
X32604047Y-30001666D01*
X32782619Y-30001666D01*
X31830238Y-30001666D02*
X31830238Y-28835000D01*
X31830238Y-29001666D02*
X31770714Y-28918333D01*
X31651666Y-28835000D01*
X31473095Y-28835000D01*
X31354047Y-28918333D01*
X31294523Y-29085000D01*
X31294523Y-30001666D01*
X31294523Y-29085000D02*
X31235000Y-28918333D01*
X31115952Y-28835000D01*
X30937380Y-28835000D01*
X30818333Y-28918333D01*
X30758809Y-29085000D01*
X30758809Y-30001666D01*
X30163571Y-28835000D02*
X30163571Y-30585000D01*
X30163571Y-28918333D02*
X30044523Y-28835000D01*
X29806428Y-28835000D01*
X29687380Y-28918333D01*
X29627857Y-29001666D01*
X29568333Y-29168333D01*
X29568333Y-29668333D01*
X29627857Y-29835000D01*
X29687380Y-29918333D01*
X29806428Y-30001666D01*
X30044523Y-30001666D01*
X30163571Y-29918333D01*
X28496904Y-28835000D02*
X28496904Y-30001666D01*
X29032619Y-28835000D02*
X29032619Y-29751666D01*
X28973095Y-29918333D01*
X28854047Y-30001666D01*
X28675476Y-30001666D01*
X28556428Y-29918333D01*
X28496904Y-29835000D01*
X28080238Y-28835000D02*
X27604047Y-28835000D01*
X27901666Y-28251666D02*
X27901666Y-29751666D01*
X27842142Y-29918333D01*
X27723095Y-30001666D01*
X27604047Y-30001666D01*
X26711190Y-29918333D02*
X26830238Y-30001666D01*
X27068333Y-30001666D01*
X27187380Y-29918333D01*
X27246904Y-29751666D01*
X27246904Y-29085000D01*
X27187380Y-28918333D01*
X27068333Y-28835000D01*
X26830238Y-28835000D01*
X26711190Y-28918333D01*
X26651666Y-29085000D01*
X26651666Y-29251666D01*
X27246904Y-29418333D01*
X26115952Y-30001666D02*
X26115952Y-28835000D01*
X26115952Y-29168333D02*
X26056428Y-29001666D01*
X25996904Y-28918333D01*
X25877857Y-28835000D01*
X25758809Y-28835000D01*
D11*
X59663571Y-18684761D02*
X59663571Y-16684761D01*
X59163571Y-18113333D01*
X58663571Y-16684761D01*
X58663571Y-18684761D01*
X57306428Y-17351428D02*
X57306428Y-18684761D01*
X57949285Y-17351428D02*
X57949285Y-18399047D01*
X57877857Y-18589523D01*
X57735000Y-18684761D01*
X57520714Y-18684761D01*
X57377857Y-18589523D01*
X57306428Y-18494285D01*
X56663571Y-18589523D02*
X56520714Y-18684761D01*
X56235000Y-18684761D01*
X56092142Y-18589523D01*
X56020714Y-18399047D01*
X56020714Y-18303809D01*
X56092142Y-18113333D01*
X56235000Y-18018095D01*
X56449285Y-18018095D01*
X56592142Y-17922857D01*
X56663571Y-17732380D01*
X56663571Y-17637142D01*
X56592142Y-17446666D01*
X56449285Y-17351428D01*
X56235000Y-17351428D01*
X56092142Y-17446666D01*
X55377857Y-18684761D02*
X55377857Y-17351428D01*
X55377857Y-16684761D02*
X55449285Y-16780000D01*
X55377857Y-16875238D01*
X55306428Y-16780000D01*
X55377857Y-16684761D01*
X55377857Y-16875238D01*
X54020714Y-18589523D02*
X54163571Y-18684761D01*
X54449285Y-18684761D01*
X54592142Y-18589523D01*
X54663571Y-18494285D01*
X54735000Y-18303809D01*
X54735000Y-17732380D01*
X54663571Y-17541904D01*
X54592142Y-17446666D01*
X54449285Y-17351428D01*
X54163571Y-17351428D01*
X54020714Y-17446666D01*
X51592142Y-17351428D02*
X51592142Y-18684761D01*
X51949285Y-16589523D02*
X52306428Y-18018095D01*
X51377857Y-18018095D01*
X50949285Y-18684761D02*
X50163571Y-17351428D01*
X50949285Y-17351428D02*
X50163571Y-18684761D01*
X49735000Y-18684761D02*
X48949285Y-17351428D01*
X49735000Y-17351428D02*
X48949285Y-18684761D01*
X48520714Y-18684761D02*
X47735000Y-17351428D01*
X48520714Y-17351428D02*
X47735000Y-18684761D01*
X46020714Y-18684761D02*
X46020714Y-16684761D01*
X45520714Y-18113333D01*
X45020714Y-16684761D01*
X45020714Y-18684761D01*
X44306428Y-18684761D02*
X44306428Y-17351428D01*
X44306428Y-16684761D02*
X44377857Y-16780000D01*
X44306428Y-16875238D01*
X44235000Y-16780000D01*
X44306428Y-16684761D01*
X44306428Y-16875238D01*
X42949285Y-18684761D02*
X42949285Y-16684761D01*
X42949285Y-18589523D02*
X43092142Y-18684761D01*
X43377857Y-18684761D01*
X43520714Y-18589523D01*
X43592142Y-18494285D01*
X43663571Y-18303809D01*
X43663571Y-17732380D01*
X43592142Y-17541904D01*
X43520714Y-17446666D01*
X43377857Y-17351428D01*
X43092142Y-17351428D01*
X42949285Y-17446666D01*
X42235000Y-18684761D02*
X42235000Y-17351428D01*
X42235000Y-16684761D02*
X42306428Y-16780000D01*
X42235000Y-16875238D01*
X42163571Y-16780000D01*
X42235000Y-16684761D01*
X42235000Y-16875238D01*
X36949285Y-18684761D02*
X36949285Y-16684761D01*
X36092142Y-18684761D02*
X36735000Y-17541904D01*
X36092142Y-16684761D02*
X36949285Y-17827619D01*
X34877857Y-18589523D02*
X35020714Y-18684761D01*
X35306428Y-18684761D01*
X35449285Y-18589523D01*
X35520714Y-18399047D01*
X35520714Y-17637142D01*
X35449285Y-17446666D01*
X35306428Y-17351428D01*
X35020714Y-17351428D01*
X34877857Y-17446666D01*
X34806428Y-17637142D01*
X34806428Y-17827619D01*
X35520714Y-18018095D01*
X34306428Y-17351428D02*
X33949285Y-18684761D01*
X33592142Y-17351428D02*
X33949285Y-18684761D01*
X34092142Y-19160952D01*
X34163571Y-19256190D01*
X34306428Y-19351428D01*
X33020714Y-18684761D02*
X33020714Y-16684761D01*
X33020714Y-17446666D02*
X32877857Y-17351428D01*
X32592142Y-17351428D01*
X32449285Y-17446666D01*
X32377857Y-17541904D01*
X32306428Y-17732380D01*
X32306428Y-18303809D01*
X32377857Y-18494285D01*
X32449285Y-18589523D01*
X32592142Y-18684761D01*
X32877857Y-18684761D01*
X33020714Y-18589523D01*
X31449285Y-18684761D02*
X31592142Y-18589523D01*
X31663571Y-18494285D01*
X31735000Y-18303809D01*
X31735000Y-17732380D01*
X31663571Y-17541904D01*
X31592142Y-17446666D01*
X31449285Y-17351428D01*
X31235000Y-17351428D01*
X31092142Y-17446666D01*
X31020714Y-17541904D01*
X30949285Y-17732380D01*
X30949285Y-18303809D01*
X31020714Y-18494285D01*
X31092142Y-18589523D01*
X31235000Y-18684761D01*
X31449285Y-18684761D01*
X29663571Y-18684761D02*
X29663571Y-17637142D01*
X29735000Y-17446666D01*
X29877857Y-17351428D01*
X30163571Y-17351428D01*
X30306428Y-17446666D01*
X29663571Y-18589523D02*
X29806428Y-18684761D01*
X30163571Y-18684761D01*
X30306428Y-18589523D01*
X30377857Y-18399047D01*
X30377857Y-18208571D01*
X30306428Y-18018095D01*
X30163571Y-17922857D01*
X29806428Y-17922857D01*
X29663571Y-17827619D01*
X28949285Y-18684761D02*
X28949285Y-17351428D01*
X28949285Y-17732380D02*
X28877857Y-17541904D01*
X28806428Y-17446666D01*
X28663571Y-17351428D01*
X28520714Y-17351428D01*
X27377857Y-18684761D02*
X27377857Y-16684761D01*
X27377857Y-18589523D02*
X27520714Y-18684761D01*
X27806428Y-18684761D01*
X27949285Y-18589523D01*
X28020714Y-18494285D01*
X28092142Y-18303809D01*
X28092142Y-17732380D01*
X28020714Y-17541904D01*
X27949285Y-17446666D01*
X27806428Y-17351428D01*
X27520714Y-17351428D01*
X27377857Y-17446666D01*
X25592142Y-18113333D02*
X24877857Y-18113333D01*
X25735000Y-18684761D02*
X25235000Y-16684761D01*
X24735000Y-18684761D01*
X23592142Y-18684761D02*
X23592142Y-16684761D01*
X23592142Y-18589523D02*
X23735000Y-18684761D01*
X24020714Y-18684761D01*
X24163571Y-18589523D01*
X24235000Y-18494285D01*
X24306428Y-18303809D01*
X24306428Y-17732380D01*
X24235000Y-17541904D01*
X24163571Y-17446666D01*
X24020714Y-17351428D01*
X23735000Y-17351428D01*
X23592142Y-17446666D01*
X22235000Y-18684761D02*
X22235000Y-17637142D01*
X22306428Y-17446666D01*
X22449285Y-17351428D01*
X22735000Y-17351428D01*
X22877857Y-17446666D01*
X22235000Y-18589523D02*
X22377857Y-18684761D01*
X22735000Y-18684761D01*
X22877857Y-18589523D01*
X22949285Y-18399047D01*
X22949285Y-18208571D01*
X22877857Y-18018095D01*
X22735000Y-17922857D01*
X22377857Y-17922857D01*
X22235000Y-17827619D01*
X21520714Y-17351428D02*
X21520714Y-19351428D01*
X21520714Y-17446666D02*
X21377857Y-17351428D01*
X21092142Y-17351428D01*
X20949285Y-17446666D01*
X20877857Y-17541904D01*
X20806428Y-17732380D01*
X20806428Y-18303809D01*
X20877857Y-18494285D01*
X20949285Y-18589523D01*
X21092142Y-18684761D01*
X21377857Y-18684761D01*
X21520714Y-18589523D01*
X20377857Y-17351428D02*
X19806428Y-17351428D01*
X20163571Y-16684761D02*
X20163571Y-18399047D01*
X20092142Y-18589523D01*
X19949285Y-18684761D01*
X19806428Y-18684761D01*
X18735000Y-18589523D02*
X18877857Y-18684761D01*
X19163571Y-18684761D01*
X19306428Y-18589523D01*
X19377857Y-18399047D01*
X19377857Y-17637142D01*
X19306428Y-17446666D01*
X19163571Y-17351428D01*
X18877857Y-17351428D01*
X18735000Y-17446666D01*
X18663571Y-17637142D01*
X18663571Y-17827619D01*
X19377857Y-18018095D01*
X18020714Y-18684761D02*
X18020714Y-17351428D01*
X18020714Y-17732380D02*
X17949285Y-17541904D01*
X17877857Y-17446666D01*
X17735000Y-17351428D01*
X17592142Y-17351428D01*
D10*
X87304285Y-57757142D02*
X87161428Y-57828571D01*
X86923333Y-57828571D01*
X86828095Y-57757142D01*
X86780476Y-57685714D01*
X86732857Y-57542857D01*
X86732857Y-57400000D01*
X86780476Y-57257142D01*
X86828095Y-57185714D01*
X86923333Y-57114285D01*
X87113809Y-57042857D01*
X87209047Y-56971428D01*
X87256666Y-56900000D01*
X87304285Y-56757142D01*
X87304285Y-56614285D01*
X87256666Y-56471428D01*
X87209047Y-56400000D01*
X87113809Y-56328571D01*
X86875714Y-56328571D01*
X86732857Y-56400000D01*
X86399523Y-56828571D02*
X86209047Y-57828571D01*
X86018571Y-57114285D01*
X85828095Y-57828571D01*
X85637619Y-56828571D01*
X85256666Y-57828571D02*
X85256666Y-56828571D01*
X85256666Y-56328571D02*
X85304285Y-56400000D01*
X85256666Y-56471428D01*
X85209047Y-56400000D01*
X85256666Y-56328571D01*
X85256666Y-56471428D01*
X84923333Y-56828571D02*
X84542380Y-56828571D01*
X84780476Y-56328571D02*
X84780476Y-57614285D01*
X84732857Y-57757142D01*
X84637619Y-57828571D01*
X84542380Y-57828571D01*
X83780476Y-57757142D02*
X83875714Y-57828571D01*
X84066190Y-57828571D01*
X84161428Y-57757142D01*
X84209047Y-57685714D01*
X84256666Y-57542857D01*
X84256666Y-57114285D01*
X84209047Y-56971428D01*
X84161428Y-56900000D01*
X84066190Y-56828571D01*
X83875714Y-56828571D01*
X83780476Y-56900000D01*
X83351904Y-57828571D02*
X83351904Y-56328571D01*
X82923333Y-57828571D02*
X82923333Y-57042857D01*
X82970952Y-56900000D01*
X83066190Y-56828571D01*
X83209047Y-56828571D01*
X83304285Y-56900000D01*
X83351904Y-56971428D01*
D11*
X97480000Y-33289761D02*
X97480000Y-31289761D01*
X96980000Y-32718333D01*
X96480000Y-31289761D01*
X96480000Y-33289761D01*
X95765714Y-33289761D02*
X95765714Y-31956428D01*
X95765714Y-31289761D02*
X95837142Y-31385000D01*
X95765714Y-31480238D01*
X95694285Y-31385000D01*
X95765714Y-31289761D01*
X95765714Y-31480238D01*
X94408571Y-33289761D02*
X94408571Y-31289761D01*
X94408571Y-33194523D02*
X94551428Y-33289761D01*
X94837142Y-33289761D01*
X94980000Y-33194523D01*
X95051428Y-33099285D01*
X95122857Y-32908809D01*
X95122857Y-32337380D01*
X95051428Y-32146904D01*
X94980000Y-32051666D01*
X94837142Y-31956428D01*
X94551428Y-31956428D01*
X94408571Y-32051666D01*
X93694285Y-33289761D02*
X93694285Y-31956428D01*
X93694285Y-31289761D02*
X93765714Y-31385000D01*
X93694285Y-31480238D01*
X93622857Y-31385000D01*
X93694285Y-31289761D01*
X93694285Y-31480238D01*
X91837142Y-33289761D02*
X91837142Y-31289761D01*
X91122857Y-31956428D02*
X91122857Y-33289761D01*
X91122857Y-32146904D02*
X91051428Y-32051666D01*
X90908571Y-31956428D01*
X90694285Y-31956428D01*
X90551428Y-32051666D01*
X90480000Y-32242142D01*
X90480000Y-33289761D01*
X92376428Y-43292142D02*
X92876428Y-43292142D01*
X92876428Y-44339761D02*
X92876428Y-42339761D01*
X92162142Y-42339761D01*
X91376428Y-44339761D02*
X91519285Y-44244523D01*
X91590714Y-44149285D01*
X91662142Y-43958809D01*
X91662142Y-43387380D01*
X91590714Y-43196904D01*
X91519285Y-43101666D01*
X91376428Y-43006428D01*
X91162142Y-43006428D01*
X91019285Y-43101666D01*
X90947857Y-43196904D01*
X90876428Y-43387380D01*
X90876428Y-43958809D01*
X90947857Y-44149285D01*
X91019285Y-44244523D01*
X91162142Y-44339761D01*
X91376428Y-44339761D01*
X90019285Y-44339761D02*
X90162142Y-44244523D01*
X90233571Y-44149285D01*
X90305000Y-43958809D01*
X90305000Y-43387380D01*
X90233571Y-43196904D01*
X90162142Y-43101666D01*
X90019285Y-43006428D01*
X89805000Y-43006428D01*
X89662142Y-43101666D01*
X89590714Y-43196904D01*
X89519285Y-43387380D01*
X89519285Y-43958809D01*
X89590714Y-44149285D01*
X89662142Y-44244523D01*
X89805000Y-44339761D01*
X90019285Y-44339761D01*
X89090714Y-43006428D02*
X88519285Y-43006428D01*
X88876428Y-42339761D02*
X88876428Y-44054047D01*
X88805000Y-44244523D01*
X88662142Y-44339761D01*
X88519285Y-44339761D01*
X94126428Y-47544523D02*
X93912142Y-47639761D01*
X93555000Y-47639761D01*
X93412142Y-47544523D01*
X93340714Y-47449285D01*
X93269285Y-47258809D01*
X93269285Y-47068333D01*
X93340714Y-46877857D01*
X93412142Y-46782619D01*
X93555000Y-46687380D01*
X93840714Y-46592142D01*
X93983571Y-46496904D01*
X94055000Y-46401666D01*
X94126428Y-46211190D01*
X94126428Y-46020714D01*
X94055000Y-45830238D01*
X93983571Y-45735000D01*
X93840714Y-45639761D01*
X93483571Y-45639761D01*
X93269285Y-45735000D01*
X92769285Y-46306428D02*
X92483571Y-47639761D01*
X92197857Y-46687380D01*
X91912142Y-47639761D01*
X91626428Y-46306428D01*
X91055000Y-47639761D02*
X91055000Y-46306428D01*
X91055000Y-45639761D02*
X91126428Y-45735000D01*
X91055000Y-45830238D01*
X90983571Y-45735000D01*
X91055000Y-45639761D01*
X91055000Y-45830238D01*
X90555000Y-46306428D02*
X89983571Y-46306428D01*
X90340714Y-45639761D02*
X90340714Y-47354047D01*
X90269285Y-47544523D01*
X90126428Y-47639761D01*
X89983571Y-47639761D01*
X88840714Y-47544523D02*
X88983571Y-47639761D01*
X89269285Y-47639761D01*
X89412142Y-47544523D01*
X89483571Y-47449285D01*
X89555000Y-47258809D01*
X89555000Y-46687380D01*
X89483571Y-46496904D01*
X89412142Y-46401666D01*
X89269285Y-46306428D01*
X88983571Y-46306428D01*
X88840714Y-46401666D01*
X88197857Y-47639761D02*
X88197857Y-45639761D01*
X87555000Y-47639761D02*
X87555000Y-46592142D01*
X87626428Y-46401666D01*
X87769285Y-46306428D01*
X87983571Y-46306428D01*
X88126428Y-46401666D01*
X88197857Y-46496904D01*
M02*
