M48
; DRILL file {KiCad 5.1.2-5.1.2} date Sun 30 Jun 2019 11:24:43 BST
; FORMAT={-:-/ absolute / metric / decimal}
; #@! TF.CreationDate,2019-06-30T11:24:43+01:00
; #@! TF.GenerationSoftware,Kicad,Pcbnew,5.1.2-5.1.2
FMAT,2
METRIC
T1C0.400
T2C0.800
T3C0.900
T4C1.000
T5C1.200
T6C1.500
T7C3.500
T8C1.100
%
G90
G05
T1
X13.97Y-56.515
X15.24Y-12.065
X17.78Y-36.195
X18.415Y-19.685
X22.225Y-5.715
X24.765Y-6.35
X24.924Y-40.799
X25.999Y-43.105
X27.305Y-6.858
X30.48Y-19.05
X31.115Y-31.75
X31.242Y-16.764
X34.29Y-17.78
X36.957Y-18.034
X37.152Y-51.113
X41.275Y-29.21
X41.656Y-11.43
X42.545Y-19.685
X42.545Y-49.53
X43.18Y-31.115
X45.72Y-5.715
X48.26Y-6.35
X49.53Y-41.275
X51.181Y-7.239
X52.07Y-49.365
X52.493Y-29.21
X54.991Y-4.445
X55.245Y-36.195
X58.801Y-17.145
X60.96Y-18.034
X77.47Y-58.42
X80.01Y-56.35
T2
X18.415Y-38.735
X18.415Y-46.355
X20.955Y-38.735
X20.955Y-46.355
X23.495Y-38.735
X23.495Y-46.355
X26.035Y-38.735
X26.035Y-46.355
X28.575Y-38.735
X28.575Y-46.355
X31.115Y-38.735
X31.115Y-46.355
X33.655Y-38.735
X33.655Y-46.355
X36.195Y-38.735
X36.195Y-46.355
X10.795Y-31.115
X13.335Y-31.115
X18.415Y-26.67
X18.415Y-34.29
X20.955Y-26.67
X20.955Y-34.29
X23.495Y-26.67
X23.495Y-34.29
X26.035Y-26.67
X26.035Y-34.29
X28.575Y-26.67
X28.575Y-34.29
X31.115Y-26.67
X31.115Y-34.29
X33.655Y-26.67
X33.655Y-34.29
X36.195Y-26.67
X36.195Y-34.29
X10.795Y-26.035
X13.335Y-26.035
X10.795Y-43.815
X13.335Y-43.815
X43.18Y-26.67
X43.18Y-34.29
X45.72Y-26.67
X45.72Y-34.29
X48.26Y-26.67
X48.26Y-34.29
X50.8Y-26.67
X50.8Y-34.29
X53.34Y-26.67
X53.34Y-34.29
X55.88Y-26.67
X55.88Y-34.29
X58.42Y-26.67
X58.42Y-34.29
X60.96Y-26.67
X60.96Y-34.29
X10.795Y-23.495
X13.335Y-23.495
X14.605Y-53.975
X14.605Y-61.595
X17.145Y-53.975
X17.145Y-61.595
X19.685Y-53.975
X19.685Y-61.595
X22.225Y-53.975
X22.225Y-61.595
X24.765Y-53.975
X24.765Y-61.595
X27.305Y-53.975
X27.305Y-61.595
X29.845Y-53.975
X29.845Y-61.595
X43.18Y-38.735
X43.18Y-46.355
X45.72Y-38.735
X45.72Y-46.355
X48.26Y-38.735
X48.26Y-46.355
X50.8Y-38.735
X50.8Y-46.355
X53.34Y-38.735
X53.34Y-46.355
X55.88Y-38.735
X55.88Y-46.355
X58.42Y-38.735
X58.42Y-46.355
X60.96Y-38.735
X60.96Y-46.355
X43.18Y-14.605
X43.18Y-22.225
X45.72Y-14.605
X45.72Y-22.225
X48.26Y-14.605
X48.26Y-22.225
X50.8Y-14.605
X50.8Y-22.225
X53.34Y-14.605
X53.34Y-22.225
X55.88Y-14.605
X55.88Y-22.225
X58.42Y-14.605
X58.42Y-22.225
X60.96Y-14.605
X60.96Y-22.225
X64.135Y-19.725
X64.135Y-22.225
X69.85Y-42.745
X69.85Y-47.625
X10.795Y-20.955
X13.335Y-20.955
X39.37Y-43.855
X39.37Y-46.355
X39.37Y-7.914
X39.37Y-10.414
X33.02Y-59.095
X33.02Y-61.595
X18.415Y-14.605
X18.415Y-22.225
X20.955Y-14.605
X20.955Y-22.225
X23.495Y-14.605
X23.495Y-22.225
X26.035Y-14.605
X26.035Y-22.225
X28.575Y-14.605
X28.575Y-22.225
X31.115Y-14.605
X31.115Y-22.225
X33.655Y-14.605
X33.655Y-22.225
X36.195Y-14.605
X36.195Y-22.225
X64.135Y-7.66
X64.135Y-10.16
X10.795Y-28.575
X13.335Y-28.575
X39.37Y-19.685
X39.37Y-22.185
X59.73Y-50.8
X62.23Y-50.8
X74.93Y-46.355
X74.93Y-48.855
X67.945Y-5.08
X78.105Y-5.08
X64.135Y-31.79
X64.135Y-34.29
X18.415Y-2.54
X18.415Y-10.16
X20.955Y-2.54
X20.955Y-10.16
X23.495Y-2.54
X23.495Y-10.16
X26.035Y-2.54
X26.035Y-10.16
X28.575Y-2.54
X28.575Y-10.16
X31.115Y-2.54
X31.115Y-10.16
X33.655Y-2.54
X33.655Y-10.16
X36.195Y-2.54
X36.195Y-10.16
X69.215Y-19.685
X69.215Y-27.305
X71.755Y-19.685
X71.755Y-27.305
X74.295Y-19.685
X74.295Y-27.305
X76.835Y-19.685
X76.835Y-27.305
X67.945Y-36.195
X78.105Y-36.195
X74.93Y-41.275
X74.93Y-43.775
X10.795Y-33.655
X13.335Y-33.655
X10.795Y-38.735
X13.335Y-38.735
X64.135Y-43.855
X64.135Y-46.355
X10.795Y-41.275
X13.335Y-41.275
X43.18Y-2.54
X43.18Y-10.16
X45.72Y-2.54
X45.72Y-10.16
X48.26Y-2.54
X48.26Y-10.16
X50.8Y-2.54
X50.8Y-10.16
X53.34Y-2.54
X53.34Y-10.16
X55.88Y-2.54
X55.88Y-10.16
X58.42Y-2.54
X58.42Y-10.16
X60.96Y-2.54
X60.96Y-10.16
X67.945Y-13.97
X78.105Y-13.97
X44.45Y-53.975
X44.45Y-61.595
X46.99Y-53.975
X46.99Y-61.595
X49.53Y-53.975
X49.53Y-61.595
X52.07Y-53.975
X52.07Y-61.595
X54.61Y-53.975
X54.61Y-61.595
X57.15Y-53.975
X57.15Y-61.595
X59.69Y-53.975
X59.69Y-61.595
X62.23Y-53.975
X62.23Y-61.595
X64.77Y-53.975
X64.77Y-61.595
X67.31Y-53.975
X67.31Y-61.595
X69.85Y-53.975
X69.85Y-61.595
X72.39Y-53.975
X72.39Y-61.595
X74.93Y-53.975
X74.93Y-61.595
X77.47Y-53.975
X77.47Y-61.595
X39.37Y-31.75
X39.37Y-34.25
X10.795Y-36.195
X13.335Y-36.195
X83.82Y-31.75
X86.32Y-31.75
X9.144Y-52.197
X9.144Y-54.697
X67.945Y-31.75
X78.105Y-31.75
X67.945Y-9.525
X78.105Y-9.525
T3
X82.79Y-62.865
X87.39Y-62.865
X85.0Y-3.73
X85.0Y-6.27
T4
X36.83Y-55.245
X36.83Y-57.785
X36.83Y-60.325
X39.37Y-55.245
X39.37Y-57.785
X39.37Y-60.325
X3.175Y-20.955
X3.175Y-23.495
X3.175Y-26.035
X3.175Y-28.575
X3.175Y-31.115
X3.175Y-33.655
X3.175Y-36.195
X3.175Y-38.735
X3.175Y-41.275
X3.175Y-43.815
X5.715Y-20.955
X5.715Y-23.495
X5.715Y-26.035
X5.715Y-28.575
X5.715Y-31.115
X5.715Y-33.655
X5.715Y-36.195
X5.715Y-38.735
X5.715Y-41.275
X5.715Y-43.815
T5
X85.46Y-15.0
X85.46Y-25.0
X87.66Y-12.65
X87.66Y-20.0
X87.66Y-27.35
T6
X97.46Y-15.0
X97.46Y-17.5
X97.46Y-22.5
X97.46Y-25.0
T7
X5.0Y-5.0
X5.0Y-60.0
X95.0Y-5.0
X95.0Y-60.0
T8
X81.59Y-60.365
X88.59Y-60.365
T2
G00X85.35Y-37.05
M15
G01X81.65Y-37.05
M16
G05
G00X85.35Y-52.95
M15
G01X81.65Y-52.95
M16
G05
G00X91.85Y-37.05
M15
G01X88.15Y-37.05
M16
G05
G00X91.85Y-52.95
M15
G01X88.15Y-52.95
M16
G05
G00X98.35Y-37.05
M15
G01X94.65Y-37.05
M16
G05
G00X98.35Y-52.95
M15
G01X94.65Y-52.95
M16
G05
T0
M30
